# xmcd
#
# Track frame offsets: 
#        150
#        23290
#        41679
#        50920
#        69649
#        94109
#        114406
#        126153
#        141953
#        168188
#        188757
#        206448
#
# Disc length: 3095 seconds
#
# Revision: 0
# Processed by: cddbd v1.5.2PL0 Copyright (c) Steve Scherf et al.
# Submitted via: ExactAudioCopy v1.3
#
DISCID=a30c150c
DTITLE=Joanna Connor - Rise
DYEAR=2019
DGENRE=Blues Rock
TTITLE0=Flip
TTITLE1=Bad Hand
TTITLE2=Joanna In A
TTITLE3=Earthshaker
TTITLE4=Rise
TTITLE5=Since I Fell For You
TTITLE6=My Irish Father
TTITLE7=Mutha
TTITLE8=If You Want Me To Stay
TTITLE9=Cherish And Worship You
TTITLE10=Blues Tonight
TTITLE11=Dear America
EXTD=
EXTT0=
EXTT1=
EXTT2=
EXTT3=
EXTT4=
EXTT5=
EXTT6=
EXTT7=
EXTT8=
EXTT9=
EXTT10=
EXTT11=
PLAYORDER=
